<svg xmlns="http://www.w3.org/2000/svg" viewBox="0 0 4680 3120"><defs><style>.cls-1{isolation:isolate;}.cls-2,.cls-6{fill:#fff;}.cls-2{opacity:0;}.cls-3{fill:#dcf2fd;}.cls-4{fill:#c0e9f9;}.cls-5{fill:#e04151;}.cls-7{fill:#ffe400;}.cls-8{fill:#fbc30b;}.cls-9{fill:#a5ddf9;}.cls-10,.cls-36{opacity:0.2;}.cls-10,.cls-13,.cls-14,.cls-15{mix-blend-mode:multiply;}.cls-11{fill:#5ebfdd;}.cls-12{fill:#77cff2;}.cls-13{opacity:0.3;}.cls-15{opacity:0.25;}.cls-16{fill:#2f9c78;}.cls-17{fill:#44ad94;}.cls-18{fill:#57ceb7;}.cls-19{fill:#211c23;}.cls-20{fill:#332d35;}.cls-21{fill:#2e60db;}.cls-22{fill:#2054bc;}.cls-23{fill:#eeb7c1;}.cls-24{fill:#ec96a6;}.cls-25{fill:#0d0d0d;}.cls-26{fill:#1a1a1a;}.cls-27{fill:#dadada;}.cls-28{fill:#7c2222;}.cls-29{fill:#4c4c4c;}.cls-30{fill:#cc364b;}.cls-31{fill:#218ba3;}.cls-32{opacity:0.5;}.cls-33{fill:#bf3045;}.cls-34{fill:#0098c6;}.cls-35{fill:#f5a61d;}.cls-37{fill:#c66312;}.cls-38{fill:#f08522;}</style></defs><title>10</title><g class="cls-1"><g id="_10" data-name="10"><rect id="_10-2" data-name="10" class="cls-2" width="4680" height="3120"/><path class="cls-3" d="M706.92,1736c7-480.87,505.25-863.49,1112.82-854.62a1391,1391,0,0,1,198.34,17.08c205.23-239.94,515.73-390.76,861.21-385.71,607.57,8.87,1093.08,496.3,1084.43,1088.7-7.3,499.85-364.1,914.72-840.38,1026.82-113.11,34.86-402,104.41-835.18,74.55-533.32-36.77-845.28-101.35-928-157.24C971,2406.43,701.68,2094.56,706.92,1736Z"/><path class="cls-4" d="M2434.59,1374a293.59,293.59,0,0,0-103.31-89.87l-33.86,52.75a230.43,230.43,0,0,0-58.63-19.59l4.75-62.58a295.64,295.64,0,0,0-136.6,9.5l13.36,61.32A230.48,230.48,0,0,0,2065,1353l-40.84-47.56a293.82,293.82,0,0,0-89.87,103.31l52.75,33.87a230.23,230.23,0,0,0-19.59,58.62l-62.58-4.75a295.63,295.63,0,0,0,9.5,136.6l61.32-13.36a230.11,230.11,0,0,0,27.52,55.35l-47.55,40.84a293.67,293.67,0,0,0,103.3,89.87l33.87-52.75a229.78,229.78,0,0,0,58.63,19.59l-4.75,62.58a295.65,295.65,0,0,0,136.6-9.5l-13.37-61.32a230.44,230.44,0,0,0,55.35-27.51l40.84,47.55A293.59,293.59,0,0,0,2456,1681.13l-52.75-33.86a230,230,0,0,0,19.59-58.63l62.58,4.75a295.64,295.64,0,0,0-9.5-136.6l-61.32,13.36A230.44,230.44,0,0,0,2387,1414.8ZM2302.09,1638A141.81,141.81,0,1,1,2288.17,1438,141.82,141.82,0,0,1,2302.09,1638Z"/><path class="cls-4" d="M3468.55,364.48a563.09,563.09,0,0,0-256.89-54.16l-7.52,120a441.1,441.1,0,0,0-116.49,21.88l-50.43-109.27a567.16,567.16,0,0,0-220,143.36l79.6,90.25a441.83,441.83,0,0,0-67,97.74L2717,632.68a563,563,0,0,0-54.17,256.9l120,7.52a441.9,441.9,0,0,0,21.88,116.49L2695.43,1064a567,567,0,0,0,143.36,220l90.25-79.6a441.57,441.57,0,0,0,97.73,67.06l-41.55,112.78a563,563,0,0,0,256.9,54.17l7.52-120a441.91,441.91,0,0,0,116.48-21.88l50.43,109.26a567,567,0,0,0,220-143.36l-79.6-90.25a441.6,441.6,0,0,0,67-97.74L3736.76,1116a563.16,563.16,0,0,0,54.16-256.9l-120-7.52a441.5,441.5,0,0,0-21.88-116.48l109.26-50.44a567.08,567.08,0,0,0-143.36-220l-90.25,79.6A441.2,441.2,0,0,0,3427,477.27Zm24.4,566c-31,146.94-175.22,240.94-322.17,210s-240.94-175.22-210-322.16,175.22-240.94,322.15-210S3523.93,783.51,3493,930.45Zm-114.44-24.13a155,155,0,1,1-119.65-183.59A155,155,0,0,1,3378.51,906.32Z"/><ellipse class="cls-5" cx="1721.67" cy="886.88" rx="465.85" ry="464.72" transform="translate(216.02 2104.97) rotate(-66.23)"/><ellipse class="cls-6" cx="1721.67" cy="886.88" rx="372.43" ry="371.53" transform="translate(216.03 2104.99) rotate(-66.23)"/><ellipse class="cls-5" cx="1721.67" cy="886.88" rx="275.28" ry="274.61" transform="translate(215.89 2104.81) rotate(-66.22)"/><ellipse class="cls-6" cx="1721.67" cy="886.88" rx="183.1" ry="182.66" transform="translate(216.21 2105.21) rotate(-66.24)"/><ellipse class="cls-5" cx="1721.67" cy="886.88" rx="88.44" ry="88.22" transform="translate(215.78 2104.67) rotate(-66.22)"/><polygon class="cls-7" points="1380.69 377.46 1502.7 516.84 1467.93 608.51 1368.69 637.82 1245.75 499.27 1347.58 470.98 1380.69 377.46"/><polygon class="cls-8" points="1411.44 411.66 1375.94 500.65 1272.26 530.61 1308.1 568.59 1410.76 541.23 1444.51 452.14 1411.44 411.66"/><polygon class="cls-8" points="1467.88 476.26 1433.11 567.94 1337.1 602.7 1368.69 637.82 1467.93 608.51 1502.7 516.84 1467.88 476.26"/><polygon points="1710.12 888.94 1319.4 454.55 1334.19 441.2 1724.9 875.59 1710.12 888.94"/><polygon class="cls-9" points="2047.87 2591.18 2258.26 2591.18 2258.26 654.84 2047.87 779.74 2047.87 2591.18"/><g class="cls-10"><polygon class="cls-11" points="2258.26 846.36 2047.87 971.26 2047.87 963.32 2258.26 838.41 2258.26 846.36"/></g><g class="cls-10"><polygon class="cls-11" points="2258.26 880.82 2047.87 1005.73 2047.87 997.78 2258.26 872.88 2258.26 880.82"/></g><g class="cls-10"><polygon class="cls-11" points="2258.26 915.29 2047.87 1040.19 2047.87 1032.25 2258.26 907.35 2258.26 915.29"/></g><g class="cls-10"><polygon class="cls-11" points="2258.26 949.76 2047.87 1074.66 2047.87 1066.72 2258.26 941.81 2258.26 949.76"/></g><g class="cls-10"><polygon class="cls-11" points="2258.26 984.22 2047.87 1109.13 2047.87 1101.18 2258.26 976.28 2258.26 984.22"/></g><g class="cls-10"><polygon class="cls-11" points="2258.26 1018.69 2047.87 1143.59 2047.87 1135.65 2258.26 1010.75 2258.26 1018.69"/></g><g class="cls-10"><polygon class="cls-11" points="2258.26 1053.15 2047.87 1178.06 2047.87 1170.12 2258.26 1045.21 2258.26 1053.15"/></g><g class="cls-10"><polygon class="cls-11" points="2258.26 1087.62 2047.87 1212.53 2047.87 1204.58 2258.26 1079.68 2258.26 1087.62"/></g><g class="cls-10"><polygon class="cls-11" points="2258.26 1122.09 2047.87 1246.99 2047.87 1239.05 2258.26 1114.14 2258.26 1122.09"/></g><g class="cls-10"><polygon class="cls-11" points="2258.26 1156.55 2047.87 1281.46 2047.87 1273.52 2258.26 1148.61 2258.26 1156.55"/></g><g class="cls-10"><polygon class="cls-11" points="2258.26 1191.02 2047.87 1315.92 2047.87 1307.98 2258.26 1183.08 2258.26 1191.02"/></g><g class="cls-10"><polygon class="cls-11" points="2258.26 1225.49 2047.87 1350.39 2047.87 1342.45 2258.26 1217.54 2258.26 1225.49"/></g><g class="cls-10"><polygon class="cls-11" points="2258.26 1259.95 2047.87 1384.86 2047.87 1376.91 2258.26 1252.01 2258.26 1259.95"/></g><g class="cls-10"><polygon class="cls-11" points="2258.26 1294.42 2047.87 1419.32 2047.87 1411.38 2258.26 1286.48 2258.26 1294.42"/></g><g class="cls-10"><polygon class="cls-11" points="2258.26 1328.89 2047.87 1453.79 2047.87 1445.85 2258.26 1320.94 2258.26 1328.89"/></g><g class="cls-10"><polygon class="cls-11" points="2258.26 1363.35 2047.87 1488.26 2047.87 1480.31 2258.26 1355.41 2258.26 1363.35"/></g><g class="cls-10"><polygon class="cls-11" points="2258.26 1397.82 2047.87 1522.72 2047.87 1514.78 2258.26 1389.88 2258.26 1397.82"/></g><g class="cls-10"><polygon class="cls-11" points="2258.26 1432.29 2047.87 1557.19 2047.87 1549.25 2258.26 1424.34 2258.26 1432.29"/></g><g class="cls-10"><polygon class="cls-11" points="2258.26 1466.75 2047.87 1591.66 2047.87 1583.71 2258.26 1458.81 2258.26 1466.75"/></g><g class="cls-10"><polygon class="cls-11" points="2258.26 1501.22 2047.87 1626.12 2047.87 1618.18 2258.26 1493.28 2258.26 1501.22"/></g><g class="cls-10"><polygon class="cls-11" points="2258.26 1535.68 2047.87 1660.59 2047.87 1652.65 2258.26 1527.74 2258.26 1535.68"/></g><g class="cls-10"><polygon class="cls-11" points="2258.26 1570.15 2047.87 1695.06 2047.87 1687.11 2258.26 1562.21 2258.26 1570.15"/></g><g class="cls-10"><polygon class="cls-11" points="2258.26 1604.62 2047.87 1729.52 2047.87 1721.58 2258.26 1596.67 2258.26 1604.62"/></g><g class="cls-10"><polygon class="cls-11" points="2258.26 1639.09 2047.87 1763.99 2047.87 1756.05 2258.26 1631.14 2258.26 1639.09"/></g><g class="cls-10"><polygon class="cls-11" points="2258.26 1673.55 2047.87 1798.45 2047.87 1790.51 2258.26 1665.61 2258.26 1673.55"/></g><g class="cls-10"><polygon class="cls-11" points="2258.26 1708.02 2047.87 1832.92 2047.87 1824.98 2258.26 1700.07 2258.26 1708.02"/></g><g class="cls-10"><polygon class="cls-11" points="2258.26 1742.48 2047.87 1867.39 2047.87 1859.44 2258.26 1734.54 2258.26 1742.48"/></g><g class="cls-10"><polygon class="cls-11" points="2258.26 1776.95 2047.87 1901.85 2047.87 1893.91 2258.26 1769.01 2258.26 1776.95"/></g><g class="cls-10"><polygon class="cls-11" points="2258.26 1811.42 2047.87 1936.32 2047.87 1928.38 2258.26 1803.47 2258.26 1811.42"/></g><g class="cls-10"><polygon class="cls-11" points="2258.26 1845.88 2047.87 1970.79 2047.87 1962.84 2258.26 1837.94 2258.26 1845.88"/></g><g class="cls-10"><polygon class="cls-11" points="2258.26 1880.35 2047.87 2005.25 2047.87 1997.31 2258.26 1872.41 2258.26 1880.35"/></g><g class="cls-10"><polygon class="cls-11" points="2258.26 1914.82 2047.87 2039.72 2047.87 2031.78 2258.26 1906.87 2258.26 1914.82"/></g><g class="cls-10"><polygon class="cls-11" points="2258.26 1949.28 2047.87 2074.19 2047.87 2066.24 2258.26 1941.34 2258.26 1949.28"/></g><g class="cls-10"><polygon class="cls-11" points="2258.26 1983.75 2047.87 2108.65 2047.87 2100.71 2258.26 1975.81 2258.26 1983.75"/></g><g class="cls-10"><polygon class="cls-11" points="2258.26 2018.21 2047.87 2143.12 2047.87 2135.18 2258.26 2010.27 2258.26 2018.21"/></g><g class="cls-10"><polygon class="cls-11" points="2258.26 2052.68 2047.87 2177.59 2047.87 2169.64 2258.26 2044.74 2258.26 2052.68"/></g><g class="cls-10"><polygon class="cls-11" points="2258.26 2087.15 2047.87 2212.05 2047.87 2204.11 2258.26 2079.2 2258.26 2087.15"/></g><g class="cls-10"><polygon class="cls-11" points="2258.26 2121.61 2047.87 2246.52 2047.87 2238.57 2258.26 2113.67 2258.26 2121.61"/></g><g class="cls-10"><polygon class="cls-11" points="2258.26 2156.08 2047.87 2280.99 2047.87 2273.04 2258.26 2148.14 2258.26 2156.08"/></g><g class="cls-10"><polygon class="cls-11" points="2258.26 2190.55 2047.87 2315.45 2047.87 2307.51 2258.26 2182.6 2258.26 2190.55"/></g><g class="cls-10"><polygon class="cls-11" points="2258.26 2225.01 2047.87 2349.92 2047.87 2341.97 2258.26 2217.07 2258.26 2225.01"/></g><g class="cls-10"><polygon class="cls-11" points="2258.26 2259.48 2047.87 2384.38 2047.87 2376.44 2258.26 2251.54 2258.26 2259.48"/></g><g class="cls-10"><polygon class="cls-11" points="2258.26 2293.95 2047.87 2418.85 2047.87 2410.91 2258.26 2286 2258.26 2293.95"/></g><g class="cls-10"><polygon class="cls-11" points="2258.26 2328.41 2047.87 2453.32 2047.87 2445.37 2258.26 2320.47 2258.26 2328.41"/></g><g class="cls-10"><polygon class="cls-11" points="2258.26 2362.88 2047.87 2487.78 2047.87 2479.84 2258.26 2354.94 2258.26 2362.88"/></g><g class="cls-10"><polygon class="cls-11" points="2258.26 2397.35 2047.87 2522.25 2047.87 2514.31 2258.26 2389.4 2258.26 2397.35"/></g><g class="cls-10"><polygon class="cls-11" points="2258.26 2431.81 2047.87 2556.72 2047.87 2548.77 2258.26 2423.87 2258.26 2431.81"/></g><g class="cls-10"><polygon class="cls-11" points="2258.26 2466.28 2047.87 2591.18 2047.87 2583.24 2258.26 2458.34 2258.26 2466.28"/></g><rect class="cls-12" x="2258.26" y="654.84" width="692.13" height="1936.34"/><polygon class="cls-12" points="1894.64 2591.18 1793.4 2591.18 1793.4 1277.28 1894.64 1337.39 1894.64 2591.18"/><rect class="cls-9" x="1522.78" y="1277.28" width="270.61" height="1313.9"/><rect class="cls-12" x="2399.02" y="623.81" width="403.43" height="1967.38"/><polygon class="cls-9" points="2358.14 2591.18 2399.02 2591.18 2399.02 623.81 2358.14 648.79 2358.14 2591.18"/><g class="cls-13"><rect class="cls-11" x="2416.14" y="724.96" width="386.31" height="10.57" transform="translate(5218.59 1460.49) rotate(180)"/></g><g class="cls-13"><rect class="cls-11" x="2416.14" y="759.97" width="386.31" height="10.57" transform="translate(5218.59 1530.51) rotate(180)"/></g><g class="cls-13"><rect class="cls-11" x="2416.14" y="794.98" width="386.31" height="10.57" transform="translate(5218.59 1600.54) rotate(180)"/></g><g class="cls-13"><rect class="cls-11" x="2416.14" y="830" width="386.31" height="10.57" transform="translate(5218.59 1670.56) rotate(180)"/></g><g class="cls-13"><rect class="cls-11" x="2416.14" y="865.01" width="386.31" height="10.57" transform="translate(5218.59 1740.59) rotate(180)"/></g><g class="cls-13"><rect class="cls-11" x="2416.14" y="900.02" width="386.31" height="10.57" transform="translate(5218.59 1810.61) rotate(180)"/></g><g class="cls-13"><rect class="cls-11" x="2416.14" y="935.03" width="386.31" height="10.57" transform="translate(5218.59 1880.64) rotate(180)"/></g><g class="cls-13"><rect class="cls-11" x="2416.14" y="970.05" width="386.31" height="10.57" transform="translate(5218.59 1950.66) rotate(180)"/></g><g class="cls-13"><rect class="cls-11" x="2416.14" y="1005.06" width="386.31" height="10.57" transform="translate(5218.59 2020.68) rotate(180)"/></g><g class="cls-13"><rect class="cls-11" x="2416.14" y="1040.07" width="386.31" height="10.57" transform="translate(5218.59 2090.71) rotate(180)"/></g><g class="cls-13"><rect class="cls-11" x="2416.14" y="1075.08" width="386.31" height="10.57" transform="translate(5218.59 2160.73) rotate(180)"/></g><g class="cls-13"><rect class="cls-11" x="2416.14" y="1110.1" width="386.31" height="10.57" transform="translate(5218.59 2230.76) rotate(180)"/></g><g class="cls-13"><rect class="cls-11" x="2416.14" y="1145.11" width="386.31" height="10.57" transform="translate(5218.59 2300.78) rotate(180)"/></g><g class="cls-13"><rect class="cls-11" x="2416.14" y="1180.12" width="386.31" height="10.57" transform="translate(5218.59 2370.81) rotate(180)"/></g><g class="cls-13"><rect class="cls-11" x="2416.14" y="1215.13" width="386.31" height="10.57" transform="translate(5218.59 2440.83) rotate(180)"/></g><g class="cls-13"><rect class="cls-11" x="2416.14" y="1250.14" width="386.31" height="10.57" transform="translate(5218.59 2510.86) rotate(180)"/></g><g class="cls-13"><rect class="cls-11" x="2416.14" y="1285.16" width="386.31" height="10.57" transform="translate(5218.59 2580.88) rotate(180)"/></g><g class="cls-13"><rect class="cls-11" x="2416.14" y="1320.17" width="386.31" height="10.57" transform="translate(5218.59 2650.91) rotate(180)"/></g><g class="cls-13"><rect class="cls-11" x="2416.14" y="1355.18" width="386.31" height="10.57" transform="translate(5218.59 2720.93) rotate(180)"/></g><g class="cls-13"><rect class="cls-11" x="2416.14" y="1390.19" width="386.31" height="10.57" transform="translate(5218.59 2790.96) rotate(180)"/></g><g class="cls-13"><rect class="cls-11" x="2416.14" y="1425.21" width="386.31" height="10.57" transform="translate(5218.59 2860.98) rotate(180)"/></g><g class="cls-13"><rect class="cls-11" x="2416.14" y="1460.22" width="386.31" height="10.57" transform="translate(5218.59 2931.01) rotate(180)"/></g><g class="cls-13"><rect class="cls-11" x="2416.14" y="1495.23" width="386.31" height="10.57" transform="translate(5218.59 3001.03) rotate(180)"/></g><g class="cls-13"><rect class="cls-11" x="2416.14" y="1530.24" width="386.31" height="10.57" transform="translate(5218.59 3071.06) rotate(180)"/></g><g class="cls-13"><rect class="cls-11" x="2416.14" y="1565.26" width="386.31" height="10.57" transform="translate(5218.59 3141.08) rotate(180)"/></g><g class="cls-13"><rect class="cls-11" x="2416.14" y="1600.27" width="386.31" height="10.57" transform="translate(5218.59 3211.1) rotate(180)"/></g><g class="cls-13"><rect class="cls-11" x="2416.14" y="1635.28" width="386.31" height="10.57" transform="translate(5218.59 3281.13) rotate(180)"/></g><g class="cls-13"><rect class="cls-11" x="2416.14" y="1670.29" width="386.31" height="10.57" transform="translate(5218.59 3351.15) rotate(180)"/></g><g class="cls-13"><rect class="cls-11" x="2416.14" y="1705.31" width="386.31" height="10.57" transform="translate(5218.59 3421.18) rotate(180)"/></g><g class="cls-13"><rect class="cls-11" x="2416.14" y="1740.32" width="386.31" height="10.57" transform="translate(5218.59 3491.2) rotate(180)"/></g><g class="cls-13"><rect class="cls-11" x="2416.14" y="1775.33" width="386.31" height="10.57" transform="translate(5218.59 3561.23) rotate(180)"/></g><g class="cls-13"><rect class="cls-11" x="2416.14" y="1810.34" width="386.31" height="10.57" transform="translate(5218.59 3631.25) rotate(180)"/></g><g class="cls-13"><rect class="cls-11" x="2416.14" y="1845.36" width="386.31" height="10.57" transform="translate(5218.59 3701.28) rotate(180)"/></g><g class="cls-13"><rect class="cls-11" x="2416.14" y="1880.37" width="386.31" height="10.57" transform="translate(5218.59 3771.3) rotate(180)"/></g><g class="cls-13"><rect class="cls-11" x="2416.14" y="1915.38" width="386.31" height="10.57" transform="translate(5218.59 3841.33) rotate(180)"/></g><g class="cls-13"><rect class="cls-11" x="2416.14" y="1950.39" width="386.31" height="10.57" transform="translate(5218.59 3911.35) rotate(180)"/></g><g class="cls-13"><rect class="cls-11" x="2416.14" y="1985.4" width="386.31" height="10.57" transform="translate(5218.59 3981.38) rotate(180)"/></g><g class="cls-13"><rect class="cls-11" x="2416.14" y="2020.42" width="386.31" height="10.57" transform="translate(5218.59 4051.4) rotate(180)"/></g><g class="cls-13"><rect class="cls-11" x="2416.14" y="2055.43" width="386.31" height="10.57" transform="translate(5218.59 4121.43) rotate(180)"/></g><g class="cls-13"><rect class="cls-11" x="2416.14" y="2090.44" width="386.31" height="10.57" transform="translate(5218.59 4191.45) rotate(180)"/></g><g class="cls-13"><rect class="cls-11" x="2416.14" y="2125.45" width="386.31" height="10.57" transform="translate(5218.59 4261.48) rotate(180)"/></g><g class="cls-13"><rect class="cls-11" x="2416.14" y="2160.47" width="386.31" height="10.57" transform="translate(5218.59 4331.5) rotate(180)"/></g><g class="cls-13"><rect class="cls-11" x="2416.14" y="2195.48" width="386.31" height="10.57" transform="translate(5218.59 4401.53) rotate(180)"/></g><g class="cls-13"><rect class="cls-11" x="2416.14" y="2230.49" width="386.31" height="10.57" transform="translate(5218.59 4471.55) rotate(180)"/></g><g class="cls-13"><rect class="cls-11" x="2416.14" y="2265.5" width="386.31" height="10.57" transform="translate(5218.59 4541.57) rotate(180)"/></g><g class="cls-13"><rect class="cls-11" x="2416.14" y="2300.52" width="386.31" height="10.57" transform="translate(5218.59 4611.6) rotate(180)"/></g><g class="cls-13"><rect class="cls-11" x="2416.14" y="2335.53" width="386.31" height="10.57" transform="translate(5218.59 4681.62) rotate(180)"/></g><g class="cls-13"><rect class="cls-11" x="2416.14" y="2370.54" width="386.31" height="10.57" transform="translate(5218.59 4751.65) rotate(180)"/></g><g class="cls-13"><rect class="cls-11" x="2416.14" y="2405.55" width="386.31" height="10.57" transform="translate(5218.59 4821.67) rotate(180)"/></g><g class="cls-13"><rect class="cls-11" x="2416.14" y="2440.57" width="386.31" height="10.57" transform="translate(5218.59 4891.7) rotate(180)"/></g><g class="cls-13"><rect class="cls-11" x="2416.14" y="2475.58" width="386.31" height="10.57" transform="translate(5218.59 4961.72) rotate(180)"/></g><g class="cls-13"><rect class="cls-11" x="2416.14" y="2510.59" width="386.31" height="10.57" transform="translate(5218.59 5031.75) rotate(180)"/></g><g class="cls-13"><rect class="cls-11" x="2416.14" y="2545.6" width="386.31" height="10.57" transform="translate(5218.59 5101.77) rotate(180)"/></g><g class="cls-13"><rect class="cls-11" x="2416.14" y="2580.61" width="386.31" height="10.57" transform="translate(5218.59 5171.8) rotate(180)"/></g><polygon class="cls-11" points="2326.53 2576.12 2426.48 2576.12 2426.48 1409.15 2326.53 1468.49 2326.53 2576.12"/><polygon class="cls-9" points="2296.9 1771.12 2390.54 1719.13 2390.54 1480.55 2296.9 1532.54 2296.9 1771.12"/><polygon class="cls-9" points="2296.9 2035.72 2390.54 1983.73 2390.54 1745.15 2296.9 1797.13 2296.9 2035.72"/><polygon class="cls-9" points="2296.9 2300.32 2390.54 2248.33 2390.54 2009.75 2296.9 2061.74 2296.9 2300.32"/><polygon class="cls-9" points="2296.9 2564.92 2390.54 2512.93 2390.54 2274.35 2296.9 2326.34 2296.9 2564.92"/><polygon class="cls-12" points="2390.54 1719.13 2390.54 1480.55 2425.56 1480.55 2425.56 1409.15 2758.63 1409.15 2758.63 2591.18 2389.62 2591.18 2390.54 2538.95 2425.56 2538.95 2425.56 2512.93 2390.54 2512.93 2390.54 2274.35 2425.56 2274.35 2425.56 2248.33 2390.54 2248.33 2390.54 2009.75 2425.56 2009.75 2425.56 1983.73 2390.54 1983.73 2390.54 1745.15 2425.56 1745.15 2425.56 1719.13 2390.54 1719.13"/><polygon class="cls-11" points="2698.61 1719.13 2651.79 1745.12 2390.54 1745.15 2349.01 1768.5 2296.9 1771.12 2390.54 1719.13 2698.61 1719.13"/><polygon class="cls-11" points="2698.61 1983.73 2651.79 2009.72 2390.54 2009.75 2349.01 2033.1 2296.9 2035.72 2390.54 1983.73 2698.61 1983.73"/><polygon class="cls-11" points="2698.61 2248.33 2651.79 2274.32 2390.54 2274.35 2349.01 2297.7 2296.9 2300.32 2390.54 2248.33 2698.61 2248.33"/><polygon class="cls-11" points="2698.61 2512.93 2651.79 2538.92 2390.54 2538.95 2349.01 2562.3 2296.9 2564.92 2390.54 2512.93 2698.61 2512.93"/><polygon class="cls-9" points="2470.24 2591.18 2618.43 2591.18 2618.43 1851.83 2470.24 1939.8 2470.24 2591.18"/><rect class="cls-12" x="2618.43" y="1851.82" width="243.75" height="739.36"/><polygon class="cls-9" points="1526.08 2592.74 1674.28 2592.74 1674.28 1666.03 1526.08 1754.01 1526.08 2592.74"/><rect class="cls-12" x="1674.27" y="1666.03" width="487.51" height="926.71"/><g class="cls-14"><rect class="cls-11" x="1674.43" y="1695.45" width="487.53" height="7.68"/></g><g class="cls-15"><polygon class="cls-11" points="1674.43 1703.12 1526.08 1791.19 1526.08 1783.51 1674.43 1695.45 1674.43 1703.12"/></g><g class="cls-14"><rect class="cls-11" x="1674.43" y="1734.32" width="487.53" height="7.68"/></g><g class="cls-15"><polygon class="cls-11" points="1674.43 1741.99 1526.08 1830.06 1526.08 1822.38 1674.43 1734.32 1674.43 1741.99"/></g><g class="cls-14"><rect class="cls-11" x="1674.43" y="1773.19" width="487.53" height="7.68"/></g><g class="cls-15"><polygon class="cls-11" points="1674.43 1780.87 1526.08 1868.93 1526.08 1861.26 1674.43 1773.19 1674.43 1780.87"/></g><g class="cls-14"><rect class="cls-11" x="1674.43" y="1812.06" width="487.53" height="7.68"/></g><g class="cls-15"><polygon class="cls-11" points="1674.43 1819.74 1526.08 1907.81 1526.08 1900.13 1674.43 1812.06 1674.43 1819.74"/></g><g class="cls-14"><rect class="cls-11" x="1674.43" y="1850.93" width="487.53" height="7.68"/></g><g class="cls-15"><polygon class="cls-11" points="1674.43 1858.61 1526.08 1946.68 1526.08 1939 1674.43 1850.93 1674.43 1858.61"/></g><g class="cls-14"><rect class="cls-11" x="1674.43" y="1889.81" width="487.53" height="7.68"/></g><g class="cls-15"><polygon class="cls-11" points="1674.43 1897.48 1526.08 1985.55 1526.08 1977.87 1674.43 1889.81 1674.43 1897.48"/></g><g class="cls-14"><rect class="cls-11" x="1674.43" y="1928.68" width="487.53" height="7.68"/></g><g class="cls-15"><polygon class="cls-11" points="1674.43 1936.35 1526.08 2024.42 1526.08 2016.74 1674.43 1928.68 1674.43 1936.35"/></g><g class="cls-14"><rect class="cls-11" x="1674.43" y="1967.55" width="487.53" height="7.68"/></g><g class="cls-15"><polygon class="cls-11" points="1674.43 1975.23 1526.08 2063.29 1526.08 2055.62 1674.43 1967.55 1674.43 1975.23"/></g><g class="cls-14"><rect class="cls-11" x="1674.43" y="2006.42" width="487.53" height="7.68"/></g><g class="cls-15"><polygon class="cls-11" points="1674.43 2014.1 1526.08 2102.16 1526.08 2094.49 1674.43 2006.42 1674.43 2014.1"/></g><g class="cls-14"><rect class="cls-11" x="1674.43" y="2045.29" width="487.53" height="7.68"/></g><g class="cls-15"><polygon class="cls-11" points="1674.43 2052.97 1526.08 2141.04 1526.08 2133.36 1674.43 2045.29 1674.43 2052.97"/></g><g class="cls-14"><rect class="cls-11" x="1674.43" y="2084.17" width="487.53" height="7.68"/></g><g class="cls-15"><polygon class="cls-11" points="1674.43 2091.84 1526.08 2179.91 1526.08 2172.23 1674.43 2084.17 1674.43 2091.84"/></g><g class="cls-14"><rect class="cls-11" x="1674.43" y="2123.04" width="487.53" height="7.68"/></g><g class="cls-15"><polygon class="cls-11" points="1674.43 2130.72 1526.08 2218.78 1526.08 2211.11 1674.43 2123.04 1674.43 2130.72"/></g><g class="cls-14"><rect class="cls-11" x="1674.43" y="2161.91" width="487.53" height="7.68"/></g><g class="cls-15"><polygon class="cls-11" points="1674.43 2169.59 1526.08 2257.65 1526.08 2249.98 1674.43 2161.91 1674.43 2169.59"/></g><g class="cls-14"><rect class="cls-11" x="1674.43" y="2200.78" width="487.53" height="7.68"/></g><g class="cls-15"><polygon class="cls-11" points="1674.43 2208.46 1526.08 2296.53 1526.08 2288.85 1674.43 2200.78 1674.43 2208.46"/></g><g class="cls-14"><rect class="cls-11" x="1674.43" y="2239.65" width="487.53" height="7.68"/></g><g class="cls-15"><polygon class="cls-11" points="1674.43 2247.33 1526.08 2335.4 1526.08 2327.72 1674.43 2239.65 1674.43 2247.33"/></g><g class="cls-14"><rect class="cls-11" x="1674.43" y="2278.53" width="487.53" height="7.68"/></g><g class="cls-15"><polygon class="cls-11" points="1674.43 2286.2 1526.08 2374.27 1526.08 2366.59 1674.43 2278.53 1674.43 2286.2"/></g><g class="cls-14"><rect class="cls-11" x="1674.43" y="2317.4" width="487.53" height="7.68"/></g><g class="cls-15"><polygon class="cls-11" points="1674.43 2325.07 1526.08 2413.14 1526.08 2405.47 1674.43 2317.4 1674.43 2325.07"/></g><g class="cls-14"><rect class="cls-11" x="1674.43" y="2356.27" width="487.53" height="7.68"/></g><g class="cls-15"><polygon class="cls-11" points="1674.43 2363.95 1526.08 2452.01 1526.08 2444.34 1674.43 2356.27 1674.43 2363.95"/></g><g class="cls-14"><rect class="cls-11" x="1674.43" y="2395.14" width="487.53" height="7.68"/></g><g class="cls-15"><polygon class="cls-11" points="1674.43 2402.82 1526.08 2490.89 1526.08 2483.21 1674.43 2395.14 1674.43 2402.82"/></g><g class="cls-14"><rect class="cls-11" x="1674.43" y="2434.01" width="487.53" height="7.68"/></g><g class="cls-15"><polygon class="cls-11" points="1674.43 2441.69 1526.08 2529.76 1526.08 2522.08 1674.43 2434.01 1674.43 2441.69"/></g><g class="cls-14"><rect class="cls-11" x="1674.43" y="2472.89" width="487.53" height="7.68"/></g><g class="cls-15"><polygon class="cls-11" points="1674.43 2480.56 1526.08 2568.63 1526.08 2560.95 1674.43 2472.89 1674.43 2480.56"/></g><polygon class="cls-9" points="1844.02 2593.1 1992.21 2593.1 1992.21 2379.19 1844.02 2467.17 1844.02 2593.1"/><polygon class="cls-12" points="1992.21 2593.1 2199.91 2593.1 2409.83 2593.1 2409.83 2379.19 1992.21 2379.19 1992.21 2593.1"/><path class="cls-16" d="M3719.29,2580.63l.15.14c42.72-34,95.57-54.22,148.24-56.66,37-1.71,79.36,3,106.68-24.09,22.83-22.67,24.59-57.81,29.37-89.15,14.44-94.68,111.22-84.56,182.93-103.87,79.64-21.44,149.12-61.91,180.42-144.59,43.36-114.59-67-113.85-146.74-100.48-77.65,13-169.36-39.4-223.61,43.17-26.48,40.31-46.8,85.43-97.16,98.16-27.31,6.9-55.24,2.21-82.93,1.73-45.55-.78-85.63,16.26-97.31,66.06-5.84,24.92-15.54,44.36-19.43,69.55-8.74,56.61-76.71,99.91-127.32,127.28C3607.6,2500.16,3684.27,2548.35,3719.29,2580.63Z"/><path class="cls-17" d="M3653.32,2519.34q65.94-64.55,137.35-122.69a1815.1,1815.1,0,0,1,147.79-108.42c51-33.32,103.5-64.15,157.61-91.24,27-13.57,54.43-26.28,82.24-37.82q20.82-8.72,42-16.42c14.1-5.11,28.28-10,42.64-14-14.23,4.58-28.21,10-42.1,15.68s-27.64,11.71-41.27,18.06c-27.29,12.61-54.11,26.35-80.5,40.92-52.83,29.08-103.79,61.75-153.1,96.75a1804,1804,0,0,0-142.16,113q-68.25,60-130.81,126.17Z"/><path class="cls-17" d="M3335.37,2401.24h-.24c-4-61-28-119.23-67.36-163.31-27.68-31-65.18-61.14-63-104.4,1.79-36.14,31.06-65.22,54.63-93.74,71.21-86.15-13.86-155.66-53.51-228.29-44-80.65-63.47-168.16-16-258.36,65.8-125,152.13-36,203.26,38.33,49.82,72.43,167.8,104.55,138.5,213-14.3,53-37.65,104.77-9.08,155.12,15.49,27.3,41.6,46,63.83,67.76,36.56,35.85,53.28,81.36,19,129.94-17.15,24.31-40.65,43.35-59.56,66.31-42.5,51.6-59.22,123.36-43.23,185.45Z"/><path class="cls-16" d="M3440.81,2405.77q4.35-103.65-1.18-206.62a1925.42,1925.42,0,0,0-21.86-203.74c-11.13-67.1-25.58-133.4-44.58-198.06-9.45-32.34-20-64.28-31.79-95.63q-8.8-23.54-18.74-46.54c-6.65-15.31-13.58-30.5-21.4-45.16,7.21,15,13.49,30.48,19.48,46.06s11.57,31.36,16.77,47.27c10.5,31.79,19.64,64.08,27.72,96.69,16.25,65.2,27.9,131.74,36.22,198.79a1919.49,1919.49,0,0,1,13.46,202.8q1.41,101.92-7,204.13Z"/><path class="cls-18" d="M3463.46,2397.19l-.19-.15c33-58.79,47.37-127.35,40.31-192.32-5-45.68-18.74-96.63,8.87-135.25,23.06-32.26,65.16-41.08,102.11-52.88,111.63-35.65,81.05-152.27,90.77-243.77,10.79-101.61,46.5-194.4,140.44-248.42C3976,1449.55,3996,1584.92,3995,1685.08c-1,97.58,79.73,200-9.73,282.07-43.67,40.09-94.32,73.53-100.14,137.64-3.16,34.75,7.82,68.07,13.64,101.9,9.59,55.64-3.39,108-61.33,131.71-29,11.89-60.24,15-89.94,24.53-66.72,21.44-123.65,77.39-147.12,144.57Z"/><path class="cls-16" d="M3550,2466.37q65.47-93,122.15-191.51a2256.56,2256.56,0,0,0,102.93-201.6c30.58-68.82,57.86-138.94,80.32-210.35,11.27-35.69,21.41-71.66,30.08-107.9q6.59-27.16,11.87-54.53c3.5-18.23,6.69-36.52,8.8-54.88-2.84,18.29-6.74,36.46-11,54.54s-8.89,36.08-14,54c-10,35.82-21.56,71.28-34.16,106.37-25.1,70.21-54.9,138.83-87.83,205.87a2236.66,2236.66,0,0,1-109.47,195.55q-59.55,95-127.6,184.16Z"/><path class="cls-19" d="M3185,2272.21l-5.9,164.33L3175,2553.18,3171,2662.25H2751.09q6.3-54.8,14.23-109.07,7.62-52.2,16.86-103.81l30.35-74.33,33.73-82.57,254.17-15.21Z"/><path class="cls-20" d="M3558.06,2662.25H3130.63q-1-23-1.71-45.94l-5.31-63.13-9.78-116.33-13.4-159.59-8.5-101.15,415.92,116.38,28.53,182.14q2.52,21.16,5,42.45,2.13,18,4.22,36.1Q3551.95,2607.33,3558.06,2662.25Z"/><path class="cls-21" d="M3885.12,2104.89c-5.09-28.79-149-420.87-163.07-462.75-14.19-42-82.31-190.65-133.64-217.12-29.3-15-153.28-40.18-254.38-59-19.69-3.65-38.5-7.06-55.59-10.11l-5.23-.94-2.43-.43c-45.09-8-76.35-13.31-76.35-13.31-4.47,10.79-8.48,19-11.87,22.59-8,8.63-18.19,14.39-28.06,16.4h-.31c-12.32,2.59-24.34-.43-32.05-10.36a42,42,0,0,1-5.82-11.7c-1-2.7-1.82-5.64-2.65-8.73-8.57.89-17.57,1.89-26.87,2.94h0l-.85.1c-11.2,1.26-22.84,2.62-34.69,4-26.76,3.17-54.68,6.67-81.21,10.36-53.11,7.4-100.73,15.59-122.72,23.45-64.27,22.74-168.33,193-214.56,267.34S2451.19,1970,2439.63,1973.61,2243,1988,2131.36,1987.22c-57.27-.38-86.11-6.91-86.11-6.91s-2.2,17-4.84,41c-.16,1.47-.33,3-.49,4.51,0,.32-.08.66-.11,1-.16,1.58-.37,3.46-.6,5.6-.09.9-.19,1.82-.29,2.74a2.28,2.28,0,0,0,0,.26c-3.53,33.73-7.28,76.08-7.58,106.24,0,1.18,0,2.33,0,3.46,0,15.14.93,26.79,3.34,32,0,0,3.53,4.19,170.31,9.07,125.07,3.68,262.1,11,312.19.24s326.31-266.19,326.31-266.19-42.39,443.6-34.68,452.09a20.7,20.7,0,0,0,3.76,2.67c1.65,1,3.76,2.17,6.26,3.51,31.58,16.24,134.29,54.6,295,58.3q15.38.34,31.43.27,17.25-.1,33.88-.58c189.19-5.27,314-43.52,332.2-59.42l30.07,140,6.69,31.12c1.17-1.34,3-3.28,5.62-6,68.29-70.8,246.16-256.26,286.4-305.33C3890.22,2175.67,3890.22,2133.66,3885.12,2104.89Zm-280.06-1.16c-2.17,9.93-28.22,61.73-51.34,106.48-18.95,36.69-35.91,68.64-35.91,68.64V1862.72C3539.55,1903.44,3608.91,2085.74,3605.06,2103.73Zm-55.89,445.59c.49-.55,0-.19-.76.32l.76,3.54A33,33,0,0,1,3549.17,2549.32Zm-.76.32-.31-1.44C3544.46,2552.37,3546.89,2550.68,3548.41,2549.64Z"/><path class="cls-22" d="M3060,1473.76s55.39,143.46,79.48,171.34c0,0,89.84-122.47,112.35-167.8l-39.6-39.48-63.06,90.37-49-94.32Z"/><path d="M2961.73,1011.81s-75.13-45-69.43-141.76c0,0,36.61,33.13,41.5,36.62s53.7,58.42,53.7,58.42Z"/><path class="cls-23" d="M3086.79,1173.34V1383s19.79,32.63,89.45,38c58.6,4.51,97-38,97-38v-234.7Z"/><polygon class="cls-24" points="3086.78 1384 3218.97 1268.6 3086.78 1323.81 3086.78 1384"/><path class="cls-23" d="M2954.88,965.32v274.55a37.22,37.22,0,0,0,15.73,30.39l74.54,52.43a36.85,36.85,0,0,0,35.7,3.91l138.66-57.86a37.33,37.33,0,0,0,22.9-34.41v-269Z"/><path class="cls-24" d="M2954.88,1103.63v108.12a54.06,54.06,0,0,0,0-108.12Z"/><path class="cls-24" d="M3064.9,1161.84h-41.64a4.14,4.14,0,0,1-4.12-4.58l12.09-117.35a4.15,4.15,0,1,1,8.25.85l-11.62,112.77h37a4.16,4.16,0,0,1,0,8.31Z"/><ellipse class="cls-24" cx="3166.47" cy="1154.09" rx="54.05" ry="54.08"/><path d="M3098.68,1077.7c.25,10.91,5.6,19.63,12,19.49s11.29-9.11,11-20-5.6-19.63-12-19.49S3098.42,1066.79,3098.68,1077.7Z"/><path d="M2981.93,1077.7c.25,10.91,5.6,19.63,12,19.49s11.3-9.11,11-20-5.6-19.63-12-19.49S2981.68,1066.79,2981.93,1077.7Z"/><path d="M2952.35,1019.09c7.22,12.57,53.76-2.26,49.51-15C2994.81,982.85,2940.92,999.18,2952.35,1019.09Z"/><path class="cls-25" d="M3254.6,1124.35s-44-47.81-29.8-143.55c0,0-97.83,44.26-202.35,13.55,0,0,52.68-.91,61-16.26,0,0-189.81,41.55-200.68-112,0,0,136.16-15,180.47-30.35S3244,769.3,3297.52,884c0,0,9.77,44.32,31.51,68.7s42.89,37.86,42.89,74.89S3329.45,1121,3254.6,1124.35Z"/><path d="M3308.59,925.56s-1.22-43.16,4.06-45.34l11,10.89S3308.18,919.45,3308.59,925.56Z"/><polygon points="3311.76 932.58 3330.88 912.52 3337.39 922.99 3311.76 932.58"/><path class="cls-26" d="M3237.4,1001c50.52,0,83.69-38.8,84-39.22l-3.93-3.8c-.37.46-38.34,44.72-94.22,36.3l-.74,5.61A100.57,100.57,0,0,0,3237.4,1001Z"/><path class="cls-26" d="M3233.18,1047.26c75.33,0,107.84-64.48,108.17-65.16l-4.68-2.63c-.33.67-33.87,66.88-112,61.85l-.32,5.65C3227.39,1047.17,3230.31,1047.26,3233.18,1047.26Z"/><path class="cls-26" d="M3265.85,1059.68c47.64,0,85.22-32.69,85.7-33.12l-3.37-4.36c-.58.51-59.25,51.44-121.52,23.4l-2,5.22A99.38,99.38,0,0,0,3265.85,1059.68Z"/><path class="cls-26" d="M3028.91,982.78c11,0,63.32-8.08,135.42-42.42,71.54-34.07,116.87-27.18,117.32-27.11l.81-5.6c-1.89-.31-47.17-7.28-120.28,27.53-71.31,34-133.95,44.61-144.63,44.61Z"/><path class="cls-26" d="M2944.09,945.07c28.63,0,77.69-4.19,138.1-26.12,96-34.87,183.62-28.42,184.48-28.35l.4-5.65c-.89-.07-89.54-6.61-186.57,28.63-95.82,34.79-171.09,23.67-171.75,23.56l7.83,6.34C2916.83,943.52,2926.69,945.07,2944.09,945.07Z"/><path class="cls-26" d="M2904.49,900.2c39.6,0,175.19-44.29,181.43-46.33l-1.55-5.42c-45.64,15-168,52.24-186,45.38l-1.78,5.34A23.58,23.58,0,0,0,2904.49,900.2Z"/><ellipse class="cls-23" cx="3291.92" cy="1147.4" rx="68.39" ry="68.42" transform="translate(-3.66 10.55) rotate(-0.18)"/><path class="cls-24" d="M3277.21,1188.08a4.16,4.16,0,0,1-3.27-1.59c-5.76-7.37-9.47-17-11-28.7-4.58-34.5,27.79-48.22,45.54-50.65a4.15,4.15,0,0,1,1.13,8.22c-1.79.25-43.08,6.45-38.44,41.33,1.35,10.19,4.49,18.5,9.33,24.68a4.15,4.15,0,0,1-.72,5.83A4.11,4.11,0,0,1,3277.21,1188.08Z"/><path class="cls-24" d="M3267,1161.39a4.15,4.15,0,0,1-3.47-6.42c14.12-21.57,34.61-16.32,43.47-10.54a4.15,4.15,0,0,1-4.52,7c-1.94-1.24-19.17-11.48-32,8.13A4.14,4.14,0,0,1,3267,1161.39Z"/><path d="M3108.73,1012c.28,15.74,52.33,26,55,11.64C3168.1,999.78,3108.27,987.07,3108.73,1012Z"/><path class="cls-23" d="M1998.23,2127.48c-11.28,7.71-27.15,11.83-52.5,10.26-53.23-3.37-116.3-22-116.3-22-29.09-8.5-25.65-28.59-12.76-29.9-45.73.47-46.53-35.63-23.14-36.11-30.87-3.18-22.64-37.83,1-30.58l.71-.88c-19-3.27-12.51-30.81,18.85-28.77l125.82,5.51c-5.66-3.83-52.18-48.5-23.09-73.08,0,0,56.38,48.37,75.55,67.44a120.73,120.73,0,0,1,24.23,28C2036.22,2062.68,2012.47,2115.54,1998.23,2127.48Z"/><path class="cls-24" d="M1909.8,2115.06l-5.33,1.39c-24.26-93.33-2.36-114.7-1.41-115.59l3.75,4C1906.57,2005.09,1886.64,2025.94,1909.8,2115.06Z"/><rect class="cls-24" x="1841.76" y="2004.83" width="5.51" height="102.81" transform="translate(-428.99 3625.16) rotate(-82.72)"/><rect class="cls-24" x="1852.34" y="2043.42" width="5.51" height="96.45" transform="translate(-465.27 3651.23) rotate(-82.34)"/><rect class="cls-24" x="1842.18" y="1971.34" width="5.51" height="103.66" transform="translate(-375.72 3624.93) rotate(-83.44)"/><path class="cls-24" d="M1973.34,2052.83c-48.36-24.38-38.58-58.9-38.48-59.24l5.27,1.59-2.63-.79,2.64.78c-.37,1.24-8.37,30.54,35.68,52.74Z"/><path class="cls-23" d="M2019.69,2019.39l20.73,1.93s-12.05,106.63-8.68,124l-42-19.3Z"/><path class="cls-25" d="M3095.56,1190.49a43.83,43.83,0,0,1-6.53,25.57,40.83,40.83,0,0,1-65.05,6.44,43.68,43.68,0,0,1-11.63-27.58c0-.7-.06-1.39-.06-2.09l83.1-4.42C3095.46,1189.1,3095.52,1189.8,3095.56,1190.49Z"/><path class="cls-27" d="M3091.8,1188.6c-8.77,10-22.4,16.69-38,17.52s-29.88-4.43-39.65-13.39Z"/><path class="cls-24" d="M3089,1216.06a40.83,40.83,0,0,1-65.05,6.44c3.4-1.28,6.95-2.38,10.52-3.35a134.48,134.48,0,0,1,38-4.81A104.08,104.08,0,0,1,3089,1216.06Z"/><path class="cls-6" d="M3163.38,1414.52l-148.21,103.74-45.32-152c22-2.58,96.62-12.78,115.73-14.79,2.31,8.63,22.33,25.27,25.72,29.59C3119,1391,3151.05,1417.11,3163.38,1414.52Z"/><path class="cls-6" d="M3299.69,1524.53l-141.45-108.08c9.87-2,63.36-4.23,71.37-12.86,3.39-3.6,38-40.68,42.44-51.47,0,0,47.27,11.81,96.44,20.59Z"/><polygon points="3015.17 1518.26 3162.1 1433.82 3292.92 1518.26 3160.17 1415.17 3015.17 1518.26"/><polygon class="cls-22" points="3524.88 2265.47 3572.58 2522.59 3548.1 2548.2 3511.34 2377.12 3517.82 2278.84 3524.88 2265.47"/><path class="cls-22" d="M2843.45,1920.28l27.76-384.75s-96.7,303.51-78.3,430.61Z"/><path class="cls-22" d="M3517.81,1862.72V1535.53s42.23,317.07,21.12,374.11Z"/><path class="cls-28" d="M3869.14,2607.72a53.22,53.22,0,0,1-16.71,38.56,58.23,58.23,0,0,1-40.35,16H405.13c-31.51,0-57.06-24.42-57.06-54.53a53.19,53.19,0,0,1,16.71-38.57,58.28,58.28,0,0,1,40.35-16h3407C3843.59,2553.18,3869.14,2577.6,3869.14,2607.72Z"/><path class="cls-23" d="M1251.31,1794.78h0c-57.61,0-100.44-53.33-88-109.62l9.69-193.6,168.47,22.68V1704.6A90.17,90.17,0,0,1,1251.31,1794.78Z"/><polygon class="cls-24" points="1341.45 1704.6 1221.98 1600.32 1341.45 1650.21 1341.45 1704.6"/><path class="cls-23" d="M1460.64,1368.1v206.33a33.5,33.5,0,0,1-14.22,27.39l-67.36,47.38c-69.19,32.38-157.56-48.76-157.56-48.76a33.72,33.72,0,0,1-20.69-31.09v-243.1l196.32-55.44h0A106.25,106.25,0,0,1,1460.64,1368.1Z"/><polygon class="cls-23" points="1460.64 1400.74 1496.09 1500.08 1460.64 1512.68 1460.64 1400.74"/><path d="M1397.12,1374.85c-.26,14.23-47.29,23.52-49.69,10.52C1343.46,1363.8,1397.53,1352.31,1397.12,1374.85Z"/><path class="cls-24" d="M1392.09,1496.83a48.85,48.85,0,1,1-48.85-48.87A48.86,48.86,0,0,1,1392.09,1496.83Z"/><path class="cls-24" d="M1460.64,1516.43a3.75,3.75,0,0,1-1.46-7.2l31.43-13.33-34.26-96a3.75,3.75,0,0,1,7.07-2.52l35.45,99.34a3.77,3.77,0,0,1-2.07,4.72l-34.7,14.71A3.76,3.76,0,0,1,1460.64,1516.43Z"/><path d="M1404.51,1427.8c-.23,9.86-5.07,17.75-10.81,17.61s-10.2-8.23-10-18.09,5.06-17.74,10.8-17.61S1404.74,1418,1404.51,1427.8Z"/><path class="cls-24" d="M1403.5,1573.12c-9.06,0-19.47-2.54-30.54-10a3.91,3.91,0,0,1,4.35-6.5c29.78,20,53-.46,54-1.34a3.91,3.91,0,0,1,5.26,5.78A53.26,53.26,0,0,1,1403.5,1573.12Z"/><path d="M1195,1445.41s197.83-41.84,205-199.26l-21.43-24.56-215,12.36Z"/><path d="M1207.74,1437.57l-7.73,11.61s-21.15-30-68.25-16.62,27.65-80.74,27.65-80.74l43.82-3.86Z"/><path class="cls-23" d="M1225,1487.09a61.8,61.8,0,1,1-61.8-61.83A61.81,61.81,0,0,1,1225,1487.09Z"/><path class="cls-24" d="M1201.79,1506.92a3.73,3.73,0,0,1-2.51-1l-41.86-37.82a3.75,3.75,0,1,1,5-5.57l41.86,37.82a3.74,3.74,0,0,1-2.51,6.53Z"/><path class="cls-29" d="M1006,2638.29c13.94,9.54,26.51,17.69,37.22,24H808.42c2.15-6.72,4.38-13.2,6.71-19.38Z"/><path class="cls-23" d="M1472.81,2411.34s-49.45-1.81-77.25,26.51l-37.66,116.67h52.74Z"/><path class="cls-5" d="M1898.87,2553.18c-10,3.28-22.45,5.51-37.78,6-54.8,1.46-453.81,0-453.81,0s.47-1.65,1.36-4.63l.39-1.34c7-23.19,33.68-107.71,63.77-141.82v0l.06-.06c34.9-39.49,176.48-30.35,176.48-30.35L1552,2138.75s10.59,50.26-28.87,118.8c-39.64,68.55-93,73.12-93,73.12l-71.88,222.51-25,77.25-4.91,15.48.87,16.34s-107.68-.08-108.27,0H1118.93l-44.23-109.07-79.2-195.27c-9.49-23-33.62-41.86-53.71-42H686c21.73-66.35,57.54-175.84,75.81-236.53,3.39-11.28,7.39-23.68,11.85-36.79,5.31-15.58,11.24-32.15,17.54-49.06,7.94-21.37,16.43-43.23,24.89-64.27v0c5.1-12.67,10.17-25,15.11-36.79v0c19.12-45.52,36.07-81.89,43.34-91.78,4.66-6.41,24.44-13.15,50.83-19.57,3.82-.92,7.78-1.84,11.85-2.76,9.7-2.17,20-4.3,30.65-6.34,7.68-1.47,15.51-2.92,23.36-4.3,25.33-4.48,50.84-8.43,72.14-11.52,27-3.91,47.2-6.43,51.54-6.84,15.35-1.65-2.55-52.59,4.94-63.56a5.11,5.11,0,0,1,2.46-1.34l.07,0c6.31-2,22.81-2.81,41.08-3.1,11.92-.19,24.61-.14,35.71,0,44.94.37,100.12,3.84,112.9,5.48,12.62,1.48,21.94,11.07,29.23,22.53h0c11.58,18.22,18.06,41.19,24.67,44,11,4.56,184.52,12.25,228.55,38.21,44.21,25.77,201,377.62,243.7,479.8,42.57,102,92.81,234.52,94.27,248.23C1933.71,2529.37,1924.56,2544.74,1898.87,2553.18Z"/><path class="cls-30" d="M808.42,1955.68H938.64s50.33,5.38,57,40.29,320.3,666.27,320.3,666.27H977L791.23,1993.48Z"/><path class="cls-31" d="M1200.78,2662.25H561.47L517.2,2553.18l-210.3-518c-9.36-23-.57-41.92,19.52-41.91l310.45.13,71.72,0H725.4l65.83,0,36.79,0h11.43l35.19,0h18.12a44,44,0,0,1,19.22,5,71.25,71.25,0,0,1,18.07,13.06,72.8,72.8,0,0,1,16.27,23.92l17.84,43.94a0,0,0,0,0,0,0l1,2.37,109.58,269.9,81.8,201.49Z"/><path class="cls-30" d="M1649.35,2380.93c57.7,1.24,87.22,32.21,87.22,32.21Z"/><path d="M810.44,1580.72a248.16,248.16,0,0,1,31.75-17.33C730.1,1635.61,675,1766.66,661.82,1895.49c38.79,83.3,133.33,194.23,223.64,201.46-2-10.78-33-176.6,17.29-305.47-1.18,94,3.61,187.41,19.55,279.94,7,0,14-.28,21-.74-32.72-122.16-35-254.4,1.14-375.95-15.82,129.15-10.6,260.67,20.26,387.11,81.74-7.83,172.76-62.28,229.08-108.07,11.9-28.14,18-56.89,15.82-87.47-13.26-24.63,36.25-22.14,21.95-46.22-149.31-171.19-266.31-422.56-39.78-586.54-31.56-43.52-54.19-129.23-177.76-126.67-188,37.29-35.43,260.1-184,373.37-110.26,83.68-211.83,215.64-181.51,351.38C663.36,1744.81,718.47,1640.07,810.44,1580.72Z"/><path d="M802,1524.49q-14,11.15-27.22,23.12c101.79-36,181.66-90.36,178.5-208.95,1.59-31.56,2-63.61,10.82-94,12.66-62.92,96.07-113.35,139.78-50.67,10.45-5.62,17.61-9.81,28.06-15.43-43.81-36.36-113.41-31.68-152,10.23-35.18,37-41,92.09-48.48,142.64C917.55,1442,883.17,1460.78,802,1524.49Z"/><path d="M1046,1728c45.21,77.34,106.41,144,157.51,217.52,7.89-18.85,5.61-39.22,6.12-59.2-13.26-24.63,36.25-22.14,21.95-46.22-134.75-154.58-258.9-394.17-71.29-561-12.31-20.55-23.33-41.78-30.23-64.78-6.51-21.72-5.49-30.38-29.74-33.66-94.25-11.1-86,68.68-71.84,135.06a190.34,190.34,0,0,1-4.06,66.42C971.79,1504.91,974.94,1610.44,1046,1728Z"/><path d="M1140,1187.05c-49.53-33-127.65-18.55-158.3,33.83-31.18,53.22-10.12,116.39-11.09,173.92.08,68.15-25.39,132-62.63,188.42C808.67,1721.35,766.2,1975,890.89,2109.08c-83.75-112.59-67.41-267.18-25.8-393.22,21.95-66.2,68.32-118.71,97.63-181.8a323.34,323.34,0,0,0,29.08-139.37c0-56.25-23.92-114.51,2-167.11C1020,1177.63,1091.2,1161.74,1140,1187.05Z"/><path d="M964.44,1710.5c.81,120.67,37,241,102.41,342.24,3.23-1.45,6.44-2.91,9.61-4.42-92.07-162.48-110.42-357.36-60-536.17,9.7-44.83,15.61-92.07,9.12-138-1.94-44.3-33.32-85.58-24.42-129.76,11.47-43.92,65.2-63.74,105.69-47.56-41.83-22.42-101.25-3.1-116.92,44.07-11.73,34.68,6.26,69.21,12.22,102.74a319.61,319.61,0,0,1,3.91,98.22C993.28,1531.42,960.56,1618.64,964.44,1710.5Z"/><path d="M962.86,1278.78c-6.08,86.31,15.95,183-38.72,257.54C894,1580.55,853.56,1616.57,820.81,1659c-87.65,113-136.95,264.88-101.16,406.48-31.69-180.18,58.35-353.33,182-478.91C994.9,1483,966.52,1405.33,962.86,1278.78Z"/><path d="M1092.75,1155.81c-52.88-19.48-117.93-2.17-152.49,43-32.18,42.63-32.36,98.67-43.19,148.7-4.69,21.87-11.89,42.82-24.16,61.39-25.53,37.62-65.29,61.89-100.11,90.22-53.81,43.45-97,100.86-121.47,165.14a435.71,435.71,0,0,1,110.11-143c40.19-34.48,90.67-60.61,121.37-105.72,13.29-19.56,21-42.75,25.74-65.54,9.57-44.15,9.21-91.17,30.25-131.82C966.65,1164,1035.08,1139.79,1092.75,1155.81Z"/><path class="cls-5" d="M1065.45,1225.66c6.83,24,35.13,41.33,59.67,36.78,30.77-8.12,55-54.2,38.12-80.89C1133.49,1140.35,1052.36,1174.32,1065.45,1225.66Z"/><g class="cls-32"><path class="cls-33" d="M1065.45,1225.66c6.83,24,35.13,41.33,59.67,36.78,30.76-8.13,55-54.19,38.11-80.89a175.22,175.22,0,0,0-68.67,36.2,66,66,0,0,1,17.84-27.48,56,56,0,0,0-31.34,26c-2.5-15,2.46-30.27,9.76-43.86C1072.37,1182.51,1059.87,1204.75,1065.45,1225.66Z"/></g><path d="M1049.38,1463.71c1.62,5.27,3.41,10.46,5.34,15.61,25.39,69,51.24,125.85,113.26,143.44l30.61-55.12c-13.54-10.94-59.27-58.53-64.4-86.35-14.59-42.13,58.9-148.35,81-56.31,36.89-75.75,113.44-191,212.71-141.88-93.88-170.16-355.73-137.79-388.9,69.35-.78,5.79-1.38,11.6-1.72,17.44C1035.38,1401.26,1039.92,1433.27,1049.38,1463.71Z"/><rect class="cls-34" x="3467.58" y="847.62" width="730.11" height="454.09" rx="107.11"/><rect class="cls-6" x="3536.23" y="1184.73" width="592.81" height="2.83"/><rect class="cls-6" x="3689.8" y="1115.08" width="3.29" height="71.06"/><rect class="cls-6" x="3761.76" y="1061.69" width="3.29" height="124.46"/><rect class="cls-6" x="3833.72" y="1074.71" width="3.29" height="111.43"/><rect class="cls-6" x="3905.68" y="1016.1" width="3.29" height="170.04"/><rect class="cls-6" x="3977.64" y="1016.1" width="3.29" height="170.04"/><rect class="cls-6" x="4049.6" y="981.59" width="3.29" height="204.55"/><polygon class="cls-6" points="4015.9 935.88 4032.71 956.53 3953.12 1022.32 3904.65 994.47 3814.38 1069.08 3752.12 1034.58 3570.41 1184.77 3618.7 1184.77 3755.55 1071.66 3817.81 1106.16 3907.81 1031.77 3956.28 1059.62 4052.13 980.39 4068.07 999.98 4096.52 923.54 4015.9 935.88"/><path class="cls-6" d="M3561.56,969.5V925.29H3544V909.64h55.24v15.65h-17.53V969.5Z"/><path class="cls-6" d="M3595,969.5l26.17-59.86H3641l26.17,59.86H3646.3L3627,919.22h7.87l-19.33,50.28Zm15.56-10.44,5.13-14.53h27.54l5.13,14.53Z"/><path class="cls-6" d="M3670.41,969.5V909.64h28.82a35.18,35.18,0,0,1,14.49,2.74,20.62,20.62,0,0,1,12.78,19.83,20.2,20.2,0,0,1-12.78,19.59,36.4,36.4,0,0,1-14.49,2.65h-17.62l9-8.3V969.5Zm20.18-21.12-9-9.15h16.33c2.8,0,4.86-.63,6.2-1.88a7.56,7.56,0,0,0,0-10.27c-1.34-1.25-3.4-1.88-6.2-1.88h-16.33l9-9.15Zm15.65,21.12-14.71-21.81h21.38l14.88,21.81Z"/><path class="cls-6" d="M3765.15,970.86a38.27,38.27,0,0,1-13.38-2.26,31.08,31.08,0,0,1-10.6-6.46,29.19,29.19,0,0,1-7-9.92,33.53,33.53,0,0,1,0-25.31,29.12,29.12,0,0,1,7-9.92,31.61,31.61,0,0,1,10.73-6.45,39.47,39.47,0,0,1,13.64-2.27,39.91,39.91,0,0,1,15.86,3,29.65,29.65,0,0,1,11.5,8.56L3780,931.19a20.27,20.27,0,0,0-6.11-4.92,16,16,0,0,0-7.31-1.67,16.87,16.87,0,0,0-6,1,12.27,12.27,0,0,0-4.58,3,13.68,13.68,0,0,0-2.9,4.71,19,19,0,0,0,0,12.35,13.49,13.49,0,0,0,2.9,4.75,12.91,12.91,0,0,0,4.49,3,15.18,15.18,0,0,0,5.86,1.07,19.79,19.79,0,0,0,6.67-1.15,26,26,0,0,0,6.93-4l11.28,13.85a42.85,42.85,0,0,1-12.48,5.65A50.34,50.34,0,0,1,3765.15,970.86Zm8.55-10.17V937.94h17.53v25.31Z"/><path class="cls-6" d="M3819.71,954.28h29.93V969.5h-49.77V909.64h48.65v15.22h-28.81Zm-1.37-22.41H3845v14.54h-26.68Z"/><path class="cls-6" d="M3870.41,969.5V925.29h-17.53V909.64h55.24v15.65h-17.53V969.5Z"/><rect class="cls-34" x="387.12" y="765.71" width="528.42" height="370.71" rx="70.76"/><path class="cls-34" d="M691.05,1117.11l55.81,111.1a14.6,14.6,0,0,0,26.26-.33l52-110.13Z"/><polygon class="cls-6" points="607.17 987.52 518.77 935.18 521.66 930.29 606.11 980.29 692.13 887.55 777.32 818.26 780.91 822.67 695.87 891.84 607.17 987.52"/><rect class="cls-6" x="492.04" y="976.73" width="62.63" height="78.37"/><rect class="cls-6" x="578.68" y="1014.92" width="62.63" height="40.18"/><rect class="cls-6" x="747.99" y="868.7" width="62.63" height="186.4"/><path class="cls-6" d="M537.35,932.76a17.13,17.13,0,1,1-17.13-17.12A17.13,17.13,0,0,1,537.35,932.76Z"/><path class="cls-6" d="M623.78,983.91a17.13,17.13,0,1,1-17.13-17.13A17.12,17.12,0,0,1,623.78,983.91Z"/><path class="cls-6" d="M796.22,820.44a17.13,17.13,0,1,1-17.12-17.12A17.12,17.12,0,0,1,796.22,820.44Z"/><rect class="cls-6" x="662.81" y="943.56" width="62.63" height="111.54"/><path class="cls-6" d="M711.05,889.75a17.13,17.13,0,1,1-17.13-17.12A17.13,17.13,0,0,1,711.05,889.75Z"/><path class="cls-35" d="M2199.9,2423.59s22.39-35.26,58.41-28.71,25.22,109.52-58.41,113.66v-23.71s32.57,11.6,53.68-21.08c27.55-42.62,2.91-101.05-51.77-14.48Z"/><path class="cls-7" d="M2119.23,2389.76h-90.91l8.89,121.46a46.35,46.35,0,0,0,46.16,43h71.73a46.36,46.36,0,0,0,46.16-43l8.89-121.46Z"/><path class="cls-35" d="M2210.16,2389.77l-1.32,18.1-.28,3.79c-6.88,6.12-44.36,10.79-89.57,10.79-44.2,0-81-4.49-89-10.41l-.35-4.55-1.28-17.72Z"/><g class="cls-36"><path class="cls-35" d="M2164.26,2389.76l-8.89,121.46a46.36,46.36,0,0,1-46.16,43h45.89a46.36,46.36,0,0,0,46.16-43l8.89-121.46Z"/></g><path class="cls-37" d="M2209.69,2389.76c0,7.08-40.6,12.82-90.69,12.82s-90.68-5.74-90.68-12.82,40.6-12.82,90.68-12.82S2209.69,2382.68,2209.69,2389.76Z"/><path class="cls-28" d="M2119,2402.58c32.82,0,61.57-2.47,77.49-6.16-15.41-4-45.26-6.66-79.55-6.66-32.82,0-61.57,2.46-77.49,6.15C2054.86,2399.89,2084.71,2402.58,2119,2402.58Z"/><g class="cls-36"><path class="cls-35" d="M2088.89,2388.41a60,60,0,0,1-11.83-1.56,71.38,71.38,0,0,1-11.49-3.6,61.73,61.73,0,0,1-21-13.74,51.27,51.27,0,0,1-8.15-10.73,49.92,49.92,0,0,1-4.9-13,54.17,54.17,0,0,1,1.3-26.79c2-8.29,5.81-16.08,10-23.32a129.39,129.39,0,0,1,15-19.43c10.77-11.69,22.59-21.09,30.81-31.82a49.07,49.07,0,0,0,9-17l.72-2.26c.23-.77.36-1.65.54-2.47.3-1.66.79-3.35.94-5s.42-3.31.56-5l.07-4.83c-.23-6.36-2-12.07-5.52-16.49s-8.94-7.55-15.22-9.34c-1.57-.45-3.23-.7-4.86-1.07-1.69-.18-3.36-.45-5.08-.58s-3.55-.25-5.09-.13l-2.32.15a7.92,7.92,0,0,0-2.29.31c-6,1.1-11.68,4.41-14.9,9.88l-1.21,2-.88,2.22a8.65,8.65,0,0,0-.72,2.28l-.57,2.37a25.46,25.46,0,0,0,.57,9.85,31.66,31.66,0,0,0,11.65,17.09,1.57,1.57,0,0,1-1.7,2.63h0a34.74,34.74,0,0,1-15.95-17.72c-1.72-3.87-2.16-8.19-2.25-12.49.34-4.26,1-8.7,3.2-12.6,3.7-8.1,11.56-14.07,20.11-16.54,2.13-.84,4.34-.87,6.53-1.26s4.12-.22,6.2-.34,4.13.13,6.2.2c2.08.28,4.17.45,6.27.87a47.5,47.5,0,0,1,6.28,1.62l3.13,1.07,3,1.44a42,42,0,0,1,5.89,3.54,39.38,39.38,0,0,1,5.19,4.74c6.41,7.07,9.64,16.41,10.42,25.09.14,2.17.19,4.33.28,6.5s-.22,4.24-.33,6.36-.54,4.12-.8,6.2c-.17,1-.26,2-.5,3.1l-.83,3.19a65.58,65.58,0,0,1-4.52,12.32l-3.15,5.63c-1.07,1.87-2.34,3.5-3.52,5.25a159.51,159.51,0,0,1-15.69,18.19c-5.3,5.52-10.63,10.69-15.44,16a109.64,109.64,0,0,0-12.47,16.47c-3.25,5.83-6.17,11.78-7.6,18.25-3.64,12.61-2.29,24,5.14,34.48s19.46,19.2,32.41,26.75l.08.05a1.59,1.59,0,0,1,.58,2.19A1.58,1.58,0,0,1,2088.89,2388.41Z"/></g><g class="cls-36"><path class="cls-35" d="M2125.08,2360.62a24.61,24.61,0,0,0,3.59-10.06,33.89,33.89,0,0,0-.42-10.59,54.82,54.82,0,0,0-3.48-10.2c-.71-1.67-1.7-3.26-2.52-4.88l-2.87-5.26c-7.56-14.18-14.47-29.27-16.38-46.63a45.52,45.52,0,0,1-.25-6.63c.06-1.13.07-2.24.18-3.37l.56-3.42c.23-2.28,1.25-4.54,1.92-6.77.47-1.1,1.07-2.16,1.62-3.22a14.67,14.67,0,0,1,1.91-3.06l2.25-2.83a26,26,0,0,1,2.62-2.41,29.88,29.88,0,0,1,5.73-3.95c4.07-2.1,8.86-4,14.32-3.19a17,17,0,0,1,12.37,8.87,26.52,26.52,0,0,1,2.94,13.41,42.22,42.22,0,0,1-9,23.38,1.56,1.56,0,0,1-2.2.29,1.61,1.61,0,0,1-.44-2,42.51,42.51,0,0,0,4.91-21.55,21.25,21.25,0,0,0-3.07-9.36,8.53,8.53,0,0,0-6.63-4c-5.15-.33-11.81,4.48-15.12,9.39-3.62,5.1-3.93,12.17-3.27,19.22s3,14.4,5.65,21.55,5.8,14.28,9,21.44l2.47,5.39c.77,2,1.67,3.93,2.31,6a47.86,47.86,0,0,1,2.56,12.79c.44,8.77-2.21,18.13-9.14,23.9a1.56,1.56,0,0,1-2.3-2.06Z"/></g><g class="cls-36"><path class="cls-35" d="M2156,2362.62a111.19,111.19,0,0,0,17.79-32.49,117.11,117.11,0,0,0,6.05-34.71l.17-4.42-.19-4.46-.14-4.46c0-1.49-.25-2.91-.36-4.36a99.16,99.16,0,0,0-3.51-17.26c-3.23-11.49-8.48-22.7-14.25-34.19-2.91-5.74-5.93-11.59-8.84-17.74a115.27,115.27,0,0,1-7.7-19.88c-2-7.14-3-15.58-1-23.81a40.25,40.25,0,0,1,4.66-11.44,49.45,49.45,0,0,1,7.4-9.19,31.13,31.13,0,0,1,10.71-7,21.65,21.65,0,0,1,13.93-.49,24.58,24.58,0,0,1,10.73,7.14,34.25,34.25,0,0,1,6.13,9.88c5.75,13.84,3.2,30.21-6.13,40.52a1.58,1.58,0,0,1-2.54-1.83,34.76,34.76,0,0,0-.53-34.15c-2.79-4.81-7.23-8.41-11-8.93a8.07,8.07,0,0,0-5.22,1,17.23,17.23,0,0,0-5,4.4,34.44,34.44,0,0,0-4.15,6.61,23.11,23.11,0,0,0-2.07,6.91,23.7,23.7,0,0,0,.11,7.22,37.65,37.65,0,0,0,2,7.71c3.78,10.59,10.77,21.58,17.15,33.16s12.77,24.06,17,37.71a121,121,0,0,1,4.47,21.14,91.52,91.52,0,0,1,.64,10.78l.1,5.35c-.1,1.79-.22,3.59-.38,5.38-1.1,14.31-5.28,28.71-12.91,41s-18.25,22.45-31.41,27.62a1.6,1.6,0,0,1-1.82-2.48Z"/></g><rect class="cls-7" x="3278.77" y="2060.01" width="539.33" height="75.82" rx="10.21" transform="translate(7096.86 4195.83) rotate(180)"/><path class="cls-6" d="M3249.71,2118.56v-41.29a17.25,17.25,0,0,0-12.58-16.62,17,17,0,0,1,4.65-.64h280.85a17.24,17.24,0,0,1,17.23,17.26v41.29a17.24,17.24,0,0,1-17.23,17.26H3241.78a17,17,0,0,1-4.65-.64A17.25,17.25,0,0,0,3249.71,2118.56Z"/><g class="cls-36"><path class="cls-37" d="M3284.68,2060h259.77a68.89,68.89,0,0,0,9,29.87c2.54,4.4,12.35,20.84,31.54,28.08a55.32,55.32,0,0,0,19.62,3.51c19.92.16,91.93,3.53,194.53,8.63a19.2,19.2,0,0,1-13.69,5.72H3284.68a19.31,19.31,0,0,1-19.29-19.32v-37.17A19.31,19.31,0,0,1,3284.68,2060Z"/></g><path class="cls-6" d="M3249.67,2118.56v-41.29a17.24,17.24,0,0,0-12.54-16.62,16.86,16.86,0,0,1,4.63-.64h280a17.21,17.21,0,0,1,17.18,17.26v41.29a17.22,17.22,0,0,1-17.18,17.26h-280a16.86,16.86,0,0,1-4.63-.64A17.24,17.24,0,0,0,3249.67,2118.56Z"/><g class="cls-36"><path class="cls-7" d="M3467.76,2085c-30.39-7.31-110.21-12.1-218.8-12.2a17.16,17.16,0,0,0-11.83-12.11,16.58,16.58,0,0,1,4.59-.64H3519a17.13,17.13,0,0,1,17,17.26v41.29a17.15,17.15,0,0,1-16.46,17.25c-2.45-10.38-7.33-22.52-17.18-32.59C3497,2097.75,3486.94,2089.58,3467.76,2085Z"/></g><path class="cls-38" d="M3247.27,2127.4h274.56c5.31,0,9.62-4,9.62-8.84v-41.29c0-4.87-4.31-8.84-9.62-8.84H3247.27a17.23,17.23,0,0,0-10.14-7.78,17,17,0,0,1,4.65-.64h280.85a17.24,17.24,0,0,1,17.23,17.26v41.29a17.24,17.24,0,0,1-17.23,17.26H3241.78a17,17,0,0,1-4.65-.64A17.23,17.23,0,0,0,3247.27,2127.4Z"/><path class="cls-35" d="M3390.48,2116.56h103a2.46,2.46,0,0,0,2.45-2.46h0a2.46,2.46,0,0,0-2.45-2.46h-103a2.46,2.46,0,0,0-2.45,2.46h0A2.46,2.46,0,0,0,3390.48,2116.56Z"/><path class="cls-35" d="M3343,2097.91h53.66a3.32,3.32,0,0,0,3.31-3.32h0a3.32,3.32,0,0,0-3.31-3.31H3343a3.32,3.32,0,0,0-3.31,3.31h0A3.32,3.32,0,0,0,3343,2097.91Z"/><path class="cls-35" d="M3268.55,2085h39.25a1.76,1.76,0,0,0,1.75-1.75h0a1.76,1.76,0,0,0-1.75-1.76h-39.25a1.75,1.75,0,0,0-1.75,1.76h0A1.75,1.75,0,0,0,3268.55,2085Z"/><path class="cls-35" d="M3279.76,2116.56h33.64a2.46,2.46,0,0,0,2.45-2.46h0a2.46,2.46,0,0,0-2.45-2.46h-33.64a2.46,2.46,0,0,0-2.45,2.46h0A2.46,2.46,0,0,0,3279.76,2116.56Z"/><rect class="cls-35" x="3362.06" y="2135.82" width="362.62" height="115.15" rx="15.5" transform="translate(7086.75 4386.8) rotate(180)"/><g class="cls-36"><path class="cls-37" d="M3575.75,2231c7.74-1,16.86-3.37,23.13-10.54,7.29-8.33,7.22-19.1,7.36-29.48.18-13.26.81-31.71,2.74-55.19h83.47a32.37,32.37,0,0,1,32.24,32.3v50.56a32.37,32.37,0,0,1-32.24,32.3H3394.3a32.3,32.3,0,0,1-28.93-18.12C3475.14,2234.52,3554.22,2233.78,3575.75,2231Z"/></g><path class="cls-6" d="M3656,2135.82h199.52a35.31,35.31,0,0,1,5.47.43,30.17,30.17,0,0,0-24.87,29.77v54.76a30.17,30.17,0,0,0,24.87,29.77,35.31,35.31,0,0,1-5.47.43H3656c-19.82,0-36-16.43-36-36.52v-42.13C3620,2152.25,3636.18,2135.82,3656,2135.82Z"/><g class="cls-36"><path class="cls-7" d="M3656,2135.82h199.52a35.31,35.31,0,0,1,5.47.43,30.11,30.11,0,0,0-24.16,23.25c-18.73-.28-41.15-.56-66.6-.78,0,0-11.14-.1-61,2.1-22.72,1-33.8,1.75-46.26,8.43a82.82,82.82,0,0,0-27.33,26.33c-6.56,10.31-7.32,26.52-2.79,46.82a36.64,36.64,0,0,1-12.91-27.94v-42.13C3620,2152.25,3636.18,2135.82,3656,2135.82Z"/></g><path class="cls-38" d="M3653.61,2135.82h201.84a36.22,36.22,0,0,1,5.54.43,30.14,30.14,0,0,0-16.55,8.7H3656c-16.39,0-29.73,12.29-29.73,27.38v42.13c0,15.1,13.34,27.39,29.73,27.39h188.43a30.14,30.14,0,0,0,16.55,8.7,36.22,36.22,0,0,1-5.54.43H3653.61a36.59,36.59,0,0,1-36.44-36.52v-42.13A36.58,36.58,0,0,1,3653.61,2135.82Z"/><path class="cls-38" d="M3734.64,2189.11h87.65a3.32,3.32,0,0,0,3.3-3.31h0a3.32,3.32,0,0,0-3.3-3.31h-87.65a3.32,3.32,0,0,0-3.31,3.31h0A3.32,3.32,0,0,0,3734.64,2189.11Z"/><rect class="cls-7" x="3659.67" y="2198.74" width="71.84" height="4.91" rx="0.66" transform="translate(7391.18 4402.39) rotate(180)"/><rect class="cls-38" x="3753.75" y="2216.99" width="71.84" height="4.92" rx="0.66" transform="translate(7579.34 4438.9) rotate(180)"/><polygon class="cls-35" points="3677.41 2237.66 3695.59 2219.45 3713.77 2237.66 3713.77 2201.24 3677.41 2201.24 3677.41 2237.66"/><rect class="cls-7" x="3156.62" y="2458.86" width="399.83" height="96.88" rx="13.04" transform="translate(6713.07 5014.59) rotate(180)"/><g class="cls-36"><path class="cls-37" d="M3383.74,2534.43c5.89-.12,19.28-.58,28-9.83,5.37-5.67,7.19-12.73,8.41-22.47a168.56,168.56,0,0,0-.36-43.27h104a32.8,32.8,0,0,1,32.67,32.73V2523a32.8,32.8,0,0,1-32.67,32.73H3189.29a32.77,32.77,0,0,1-29.55-18.83C3278.53,2536.07,3362.84,2534.86,3383.74,2534.43Z"/></g><path class="cls-6" d="M3476.94,2458.86h299.48c.69,0,1.37,0,2,.08-16,1.07-28.74,14.73-28.74,31.28v34.15c0,16.55,12.75,30.21,28.74,31.29-.67,0-1.35.08-2,.08H3476.94c-16.93,0-30.78-14.12-30.78-31.37v-34.15C3446.16,2473,3460,2458.86,3476.94,2458.86Z"/><g class="cls-36"><path class="cls-7" d="M3476.94,2458.86h299.48c.69,0,1.37,0,2,.08a31,31,0,0,0-26.57,19.75c-13.26-.9-204.28-7.53-251.17,9.46-46.25,16.77-38.67,52.27-40,62.82a31.53,31.53,0,0,1-14.54-26.6v-34.15C3446.16,2473,3460,2458.86,3476.94,2458.86Z"/></g><path class="cls-38" d="M3471.84,2458.86h304.55c.7,0,1.39,0,2.07.08a31.16,31.16,0,0,0-19.93,9H3474.2c-13.54,0-24.56,10-24.56,22.23v34.15c0,12.26,11,22.24,24.56,22.24h284.33a31.16,31.16,0,0,0,19.93,9c-.68,0-1.37.08-2.07.08H3471.84a31.43,31.43,0,0,1-31.31-31.37v-34.15A31.43,31.43,0,0,1,3471.84,2458.86Z"/><path class="cls-38" d="M3645.3,2502.15H3733a3.31,3.31,0,0,0,3.3-3.31h0a3.31,3.31,0,0,0-3.3-3.31H3645.3a3.32,3.32,0,0,0-3.31,3.31h0A3.32,3.32,0,0,0,3645.3,2502.15Z"/><rect class="cls-38" x="3493.68" y="2525.91" width="125.55" height="6.63" rx="0.89" transform="translate(7112.91 5058.46) rotate(180)"/><rect class="cls-38" x="3621.5" y="2514.13" width="53.66" height="4.92" rx="0.66" transform="translate(7296.66 5033.18) rotate(180)"/><rect class="cls-38" x="3507.09" y="2493.07" width="72.21" height="4.92" rx="0.66" transform="translate(7086.39 4991.05) rotate(180)"/><rect class="cls-35" x="3514.1" y="2495.53" width="58.17" height="18.61" transform="translate(7086.37 5009.66) rotate(180)"/><rect class="cls-7" x="3377.36" y="2250.98" width="432.45" height="115.15" rx="15.5"/><g class="cls-36"><path class="cls-37" d="M3412.57,2251h84.9c-3.72,21.41-6,58.3,16.36,78.3,10.22,9.14,24.21,13.51,31.53,15.79,22.88,7.15,211,5.77,263.15,5.54-6.32,9.49-5.77,16.53-33.9,15.52h-362a35.34,35.34,0,0,1-35.21-35.27v-44.61A35.34,35.34,0,0,1,3412.57,2251Z"/></g><path class="cls-6" d="M3446.05,2251H3246.53a35.31,35.31,0,0,0-5.47.42,30.18,30.18,0,0,1,24.87,29.77v54.77a30.17,30.17,0,0,1-24.87,29.76,35.31,35.31,0,0,0,5.47.43h199.52c19.82,0,36-16.43,36-36.51v-42.13C3482.08,2267.41,3465.87,2251,3446.05,2251Z"/><g class="cls-36"><path class="cls-7" d="M3446.05,2251H3246.53a35.31,35.31,0,0,0-5.47.42,30.13,30.13,0,0,1,24.16,23.25c18.73-.27,41.15-.56,66.6-.78,0,0,11.14-.1,61,2.11,22.72,1,33.8,1.74,46.25,8.42a82.8,82.8,0,0,1,27.34,26.33c6.56,10.31,7.32,26.52,2.79,46.82a36.64,36.64,0,0,0,12.91-27.93v-42.13C3482.08,2267.41,3465.87,2251,3446.05,2251Z"/></g><path class="cls-38" d="M3448.44,2251H3246.6a36.22,36.22,0,0,0-5.54.42,30.14,30.14,0,0,1,16.55,8.7H3446c16.39,0,29.73,12.29,29.73,27.39v42.13c0,15.1-13.34,27.38-29.73,27.38H3257.61a30.14,30.14,0,0,1-16.55,8.7,36.22,36.22,0,0,0,5.54.43h201.84a36.58,36.58,0,0,0,36.44-36.51v-42.13A36.58,36.58,0,0,0,3448.44,2251Z"/><path class="cls-35" d="M3367.41,2304.27h-87.65a3.32,3.32,0,0,1-3.3-3.32h0a3.31,3.31,0,0,1,3.3-3.31h87.65a3.32,3.32,0,0,1,3.31,3.31h0A3.33,3.33,0,0,1,3367.41,2304.27Z"/><rect class="cls-7" x="3370.54" y="2313.89" width="71.84" height="4.92" rx="0.66"/><rect class="cls-35" x="3276.46" y="2332.14" width="71.84" height="4.91" rx="0.66"/><polygon class="cls-35" points="3403.61 2345.02 3385.43 2326.81 3367.25 2345.02 3367.25 2308.59 3403.61 2308.59 3403.61 2345.02"/><path class="cls-35" d="M3689.93,2366.13a1.45,1.45,0,0,0,1.44-1.45V2256a5,5,0,0,0-5-5H3707a6.68,6.68,0,0,1,6.68,6.68v101.78a6.69,6.69,0,0,1-6.68,6.69h-17.09Z"/><path class="cls-38" d="M3691.37,2364.68v-13.92l22.33.08v8.6a6.69,6.69,0,0,1-6.68,6.69h-17.09A1.45,1.45,0,0,0,3691.37,2364.68Z"/><rect class="cls-35" x="3321.66" y="2365.55" width="539.33" height="93.31" rx="12.56" transform="translate(7182.64 4824.41) rotate(180)"/><path class="cls-6" d="M3306,2437.61V2386.8c0-9.75-5.32-18-12.58-20.46a14.23,14.23,0,0,1,4.65-.79h280.85c9.52,0,17.23,9.51,17.23,21.25v50.81c0,11.74-7.71,21.25-17.23,21.25H3298a14.23,14.23,0,0,1-4.65-.79C3300.65,2455.57,3306,2447.36,3306,2437.61Z"/><g class="cls-36"><path class="cls-37" d="M3341,2365.55h259.76a99.72,99.72,0,0,0,9,36.76c2.54,5.42,12.35,25.66,31.54,34.57a46.18,46.18,0,0,0,19.62,4.32c19.92.2,91.93,4.34,194.53,10.62-3.49,4.34-8.34,7-13.69,7H3341c-10.66,0-19.29-10.65-19.29-23.78v-45.74C3321.66,2376.2,3330.29,2365.55,3341,2365.55Z"/></g><path class="cls-6" d="M3305.94,2435.67v-49c.68-10.78-9.52-20.48-7.92-20.48h280c9.49,0,17.18,9.17,17.18,20.48v49c0,11.31-7.69,20.48-17.18,20.48H3298C3296.42,2456.15,3306.62,2451.12,3305.94,2435.67Z"/><g class="cls-36"><path class="cls-7" d="M3524,2396.27c-30.39-9-110.21-14.9-218.8-15-1.56-7.21-6.07-12.9-11.83-14.91a13.88,13.88,0,0,1,4.59-.79h277.27c9.39,0,17,9.51,17,21.25v50.81c0,11.51-7.33,20.87-16.47,21.23-2.45-12.78-7.33-27.72-17.18-40.11C3553.26,2412,3543.2,2402,3524,2396.27Z"/></g><path class="cls-38" d="M3303.53,2448.49h271.76c5.3,0,9.62-4.88,9.62-10.88V2386.8c0-6-4.32-10.88-9.62-10.88H3303.53a18.25,18.25,0,0,0-10.14-9.58,14.23,14.23,0,0,1,4.65-.79h280.85c9.52,0,17.23,9.51,17.23,21.25v50.81c0,11.74-7.71,21.25-17.23,21.25H3298a14.23,14.23,0,0,1-4.65-.79A18.25,18.25,0,0,0,3303.53,2448.49Z"/><rect class="cls-35" x="3444.29" y="2429.1" width="107.94" height="6.05" rx="0.81" transform="translate(6996.52 4864.25) rotate(180)"/><rect class="cls-35" x="3395.94" y="2404.04" width="60.27" height="8.15" rx="1.1" transform="translate(6852.16 4816.24) rotate(180)"/><rect class="cls-35" x="3323.06" y="2391.95" width="42.75" height="4.32" rx="0.58" transform="translate(6688.87 4788.21) rotate(-180)"/><rect class="cls-35" x="3333.57" y="2429.1" width="38.55" height="6.05" rx="0.81" transform="translate(6705.69 4864.25) rotate(180)"/><polygon class="cls-6" points="3793.75 2431.26 3817.93 2411.05 3793.75 2390.85 3769.57 2411.05 3793.75 2431.26"/><path class="cls-6" d="M3746.53,2445h0a6,6,0,0,0,6-6v-53.78a6,6,0,0,0-6-6h0a6,6,0,0,0-6,6V2439A6,6,0,0,0,3746.53,2445Z"/></g></g></svg>